<?xml version="1.0" standalone="no"?>
<!DOCTYPE svg PUBLIC "-//W3C//DTD SVG 20010904//EN"
 "http://www.w3.org/TR/2001/REC-SVG-20010904/DTD/svg10.dtd">
<svg version="1.0" xmlns="http://www.w3.org/2000/svg"
 width="512.000000pt" height="512.000000pt" viewBox="0 0 512.000000 512.000000"
 preserveAspectRatio="xMidYMid meet">
<metadata>
Created by potrace 1.11, written by Peter Selinger 2001-2013
</metadata>
<g transform="translate(0.000000,512.000000) scale(0.100000,-0.100000)"
fill="#000000" stroke="none">
<path d="M2211 4937 c-61 -31 -84 -65 -131 -197 -23 -63 -45 -124 -50 -135 -5
-11 -26 -69 -48 -130 -22 -60 -59 -162 -82 -225 -59 -162 -57 -229 12 -303 78
-83 220 -80 296 8 17 18 47 82 72 151 24 65 53 145 65 177 l21 58 74 -98 c41
-54 77 -100 80 -103 3 -3 80 -102 171 -220 91 -118 234 -304 317 -412 l152
-197 -46 -98 c-26 -54 -59 -125 -74 -158 -15 -33 -51 -109 -80 -170 -64 -135
-254 -539 -345 -734 -76 -164 -85 -214 -48 -286 26 -50 46 -69 102 -93 50 -23
124 -21 171 3 28 15 100 91 100 107 0 5 32 74 70 154 39 81 70 148 70 149 0 2
26 59 59 126 309 651 454 969 459 1005 9 80 5 86 -271 444 -40 52 -176 228
-300 390 -125 162 -233 302 -240 310 -32 39 -69 90 -66 91 2 0 94 2 204 3 112
2 211 7 225 13 33 14 85 65 104 101 20 39 25 97 13 145 -14 55 -80 122 -134
136 -28 8 -181 11 -460 11 -411 -1 -419 -1 -462 -23z"/>
<path d="M2231 3526 c-49 -18 -101 -73 -142 -152 -19 -38 -85 -161 -146 -274
-454 -841 -416 -764 -410 -830 3 -30 19 -91 35 -135 17 -44 74 -201 127 -350
52 -148 109 -306 125 -350 16 -44 49 -136 74 -205 24 -69 108 -303 186 -520
78 -217 143 -403 145 -412 11 -52 78 -120 135 -137 78 -23 138 -9 203 49 41
36 67 105 61 161 -4 33 -153 456 -535 1517 -38 107 -81 228 -96 270 -14 42
-30 82 -34 88 -5 6 41 102 112 235 136 253 185 344 221 409 14 25 49 90 79
145 29 55 70 132 91 172 31 57 39 83 39 126 2 145 -134 242 -270 193z"/>
</g>
</svg>
